HIERARCHY
ROOT Hips
{
	OFFSET 0.00000 0.00000 0.00000
	CHANNELS 6 Xposition Yposition Zposition Zrotation Yrotation Xrotation 
	JOINT LHipJoint
	{
		OFFSET 0 0 0
		CHANNELS 3 Zrotation Yrotation Xrotation
		JOINT LeftUpLeg
		{
			OFFSET 1.58161 -1.81893 0.78828
			CHANNELS 3 Zrotation Yrotation Xrotation
			JOINT LeftLeg
			{
				OFFSET 2.53374 -6.96141 0.00000
				CHANNELS 3 Zrotation Yrotation Xrotation
				JOINT LeftFoot
				{
					OFFSET 2.63509 -7.23986 0.00000
					CHANNELS 3 Zrotation Yrotation Xrotation
					JOINT LeftToeBase
					{
						OFFSET 0.14115 -0.38781 2.05350
						CHANNELS 3 Zrotation Yrotation Xrotation
						End Site
						{
							OFFSET 0.00000 -0.00000 1.05543
						}
					}
				}
			}
		}
	}
	JOINT RHipJoint
	{
		OFFSET 0 0 0
		CHANNELS 3 Zrotation Yrotation Xrotation
		JOINT RightUpLeg
		{
			OFFSET -1.11138 -1.81893 0.78828
			CHANNELS 3 Zrotation Yrotation Xrotation
			JOINT RightLeg
			{
				OFFSET -2.58392 -7.09926 0.00000
				CHANNELS 3 Zrotation Yrotation Xrotation
				JOINT RightFoot
				{
					OFFSET -2.66423 -7.31992 0.00000
					CHANNELS 3 Zrotation Yrotation Xrotation
					JOINT RightToeBase
					{
						OFFSET -0.18831 -0.51739 2.12114
						CHANNELS 3 Zrotation Yrotation Xrotation
						End Site
						{
							OFFSET -0.00000 -0.00000 1.09845
						}
					}
				}
			}
		}
	}
	JOINT LowerBack
	{
		OFFSET 0 0 0
		CHANNELS 3 Zrotation Yrotation Xrotation
		JOINT Spine
		{
			OFFSET -0.01511 1.97958 -0.08829
			CHANNELS 3 Zrotation Yrotation Xrotation
			JOINT Spine1
			{
				OFFSET 0.08344 1.97334 -0.04330
				CHANNELS 3 Zrotation Yrotation Xrotation
				JOINT Neck
				{
					OFFSET 0 0 0
					CHANNELS 3 Zrotation Yrotation Xrotation
					JOINT Neck1
					{
						OFFSET 0.00559 1.76246 0.31246
						CHANNELS 3 Zrotation Yrotation Xrotation
						JOINT Head
						{
							OFFSET -0.07011 1.80354 -0.30524
							CHANNELS 3 Zrotation Yrotation Xrotation
							End Site
							{
								OFFSET -0.02385 1.83547 -0.13906
							}
						}
					}
				}
				JOINT LeftShoulder
				{
					OFFSET 0 0 0
					CHANNELS 3 Zrotation Yrotation Xrotation
					JOINT LeftArm
					{
						OFFSET 3.20667 1.30156 -0.60240
						CHANNELS 3 Zrotation Yrotation Xrotation
						JOINT LeftForeArm
						{
							OFFSET 4.95663 -0.00000 0.00000
							CHANNELS 3 Zrotation Yrotation Xrotation
							JOINT LeftHand
							{
								OFFSET 3.38177 -0.00000 0.00000
								CHANNELS 3 Zrotation Yrotation Xrotation
								JOINT LeftFingerBase
								{
									OFFSET 0 0 0
									CHANNELS 3 Zrotation Yrotation Xrotation
									JOINT LeftHandIndex1
									{
										OFFSET 0.66291 -0.00000 0.00000
										CHANNELS 3 Zrotation Yrotation Xrotation
										End Site
										{
											OFFSET 0.53445 -0.00000 0.00000
										}
									}
								}
								JOINT LThumb
								{
									OFFSET 0 0 0
									CHANNELS 3 Zrotation Yrotation Xrotation
									End Site
									{
										OFFSET 0.54261 -0.00000 0.54261
									}
								}
							}
						}
					}
				}
				JOINT RightShoulder
				{
					OFFSET 0 0 0
					CHANNELS 3 Zrotation Yrotation Xrotation
					JOINT RightArm
					{
						OFFSET -3.06877 1.34672 -0.60964
						CHANNELS 3 Zrotation Yrotation Xrotation
						JOINT RightForeArm
						{
							OFFSET -5.08365 -0.00000 0.00000
							CHANNELS 3 Zrotation Yrotation Xrotation
							JOINT RightHand
							{
								OFFSET -3.35984 -0.00000 0.00000
								CHANNELS 3 Zrotation Yrotation Xrotation
								JOINT RightFingerBase
								{
									OFFSET 0 0 0
									CHANNELS 3 Zrotation Yrotation Xrotation
									JOINT RightHandIndex1
									{
										OFFSET -0.82076 -0.00000 0.00000
										CHANNELS 3 Zrotation Yrotation Xrotation
										End Site
										{
											OFFSET -0.66172 -0.00000 0.00000
										}
									}
								}
								JOINT RThumb
								{
									OFFSET 0 0 0
									CHANNELS 3 Zrotation Yrotation Xrotation
									End Site
									{
										OFFSET -0.67182 -0.00000 0.67182
									}
								}
							}
						}
					}
				}
			}
		}
	}
}
MOTION
Frames: 7
Frame Time: .0083333
0.6763 9.2775 -4.4524 -5.3000 3.2919 7.1129 0.0000 0.0000 0.0000 2.5224 22.5231 -97.7284 35.5230 12.7694 141.4886 -1.9919 -39.4666 -19.5344 0.8085 -5.7381 -16.0264 0.0000 0.0000 0.0000 20.4133 -41.0424 -103.5807 -35.8708 -12.3303 143.0893 0.2911 30.1829 -19.7776 -0.0475 1.4066 -3.8682 5.0605 8.2070 40.9576 8.0951 12.0079 18.4123 1.9347 5.7221 0.2837 -3.8015 -7.3118 -16.0473 -5.7868 -7.3872 25.3344 -2.4395 -4.2951 10.7444 0.0000 0.0000 0.0000 -76.8223 2.4153 63.8355 100.9748 -59.5400 -69.4898 -0.0000 -0.0000 12.9808 50.8198 12.8553 15.2692 -7.1250 0.0000 -0.0000 23.2001 48.3858 2.0398 0.0000 0.0000 0.0000 55.0923 54.5845 5.3514 -17.3918 27.3714 -4.2659 0.0000 0.0000 14.6412 -74.3403 33.7613 -63.2324 7.1250 -0.0000 -0.0000 -21.8542 34.7284 -31.6144
0.6772 9.2701 -4.4450 -5.3732 3.2948 7.1742 0.0000 0.0000 0.0000 2.6446 22.5887 -97.9246 35.5433 12.7445 141.5804 -2.0816 -39.5871 -19.2377 0.8186 -5.7731 -16.1275 0.0000 0.0000 0.0000 20.5706 -41.0743 -103.7020 -35.8879 -12.3082 143.1690 0.2784 30.1180 -19.7984 -0.0447 1.3651 -3.7539 5.0234 8.2436 40.9176 8.1705 12.0458 18.3664 2.0125 5.7314 0.2179 -3.7544 -7.2739 -15.9354 -5.9388 -7.3150 25.2753 -2.4831 -4.2754 10.6935 -0.0000 0.0000 0.0000 -76.8590 2.4984 63.8911 101.0295 -59.5353 -69.5369 -0.0000 -0.0000 13.1605 50.9169 12.9873 15.4669 -7.1250 0.0000 -0.0000 23.3588 48.5925 2.1799 -0.0000 0.0000 0.0000 55.0077 54.3430 5.8677 -17.4871 27.4955 -4.3098 0.0000 0.0000 14.4674 -74.4824 33.9859 -63.5859 7.1250 -0.0000 -0.0000 -21.8339 35.0805 -31.6009
0.6795 9.2666 -4.4398 -5.3544 3.2715 7.0861 0.0000 0.0000 0.0000 2.6944 22.6439 -97.8378 35.5594 12.7247 141.6535 -2.0257 -39.5649 -19.4779 0.8948 -6.0290 -16.8686 0.0000 0.0000 0.0000 20.4879 -41.2008 -103.5882 -35.8950 -12.2988 143.2025 0.2759 30.1219 -19.8155 -0.0492 1.4319 -3.9381 5.1439 8.1601 41.0441 8.0163 11.9838 18.3541 1.8112 5.7165 0.2285 -3.5755 -7.2202 -15.8337 -5.8720 -7.3176 25.1853 -2.4791 -4.2519 10.6330 -0.0000 0.0000 0.0000 -76.6232 2.4588 63.8705 101.0643 -59.5323 -69.5669 -0.0000 -0.0000 13.3093 51.0552 13.2473 15.8302 -7.1250 0.0000 -0.0000 23.6167 48.9871 2.4469 -0.0000 0.0000 0.0000 55.3201 54.2447 6.1460 -17.6515 27.7086 -4.3860 0.0000 0.0000 14.6803 -74.2295 34.0178 -63.2150 7.1250 -0.0000 -0.0000 -21.6687 34.8412 -31.3310
0.6824 9.2640 -4.4349 -5.3859 3.2552 6.9703 0.0000 0.0000 0.0000 2.8828 22.5632 -97.6771 35.5666 12.7158 141.6861 -2.0151 -39.5963 -19.5604 0.9130 -6.0883 -17.0408 0.0000 0.0000 0.0000 20.4635 -41.2958 -103.4204 -35.8975 -12.2956 143.2143 0.2401 30.0603 -19.9691 -0.0577 1.5494 -4.2618 5.2515 8.1076 41.1504 7.9584 11.9573 18.3738 1.7065 5.7131 0.2547 -3.5245 -7.2086 -15.7498 -5.7526 -7.3540 25.1410 -2.4440 -4.2491 10.6017 0.0000 0.0000 0.0000 -76.5177 2.3972 63.8793 101.1257 -59.5271 -69.6199 -0.0000 -0.0000 13.2968 51.2210 13.4723 16.1712 -7.1250 0.0000 -0.0000 23.8946 49.3404 2.6965 0.0000 0.0000 0.0000 55.5371 54.1538 6.2275 -17.7921 27.8902 -4.4516 0.0000 0.0000 15.1404 -73.8374 33.9075 -62.5469 7.1250 -0.0000 -0.0000 -21.4890 34.3288 -31.0225
0.6825 9.2590 -4.4301 -5.3239 3.2126 7.0174 0.0000 0.0000 0.0000 2.9763 22.3449 -97.7128 35.5755 12.7048 141.7266 -2.1454 -39.6951 -19.0511 0.8390 -5.8429 -16.3292 0.0000 0.0000 0.0000 20.4337 -41.2997 -103.5246 -35.9124 -12.2761 143.2842 0.2319 30.0468 -20.0047 -0.0635 1.6263 -4.4741 5.1316 8.1596 41.1138 7.9661 11.9778 18.3577 1.7633 5.7147 0.2222 -3.5753 -7.2156 -15.7051 -5.7081 -7.3603 25.2081 -2.4218 -4.2506 10.6223 0.0000 -0.0000 0.0000 -76.5178 2.3848 63.9232 101.0837 -59.5307 -69.5837 -0.0000 -0.0000 13.3129 51.4044 13.4902 16.2920 -7.1250 0.0000 -0.0000 24.1076 49.4118 2.7676 0.0000 -0.0000 0.0000 55.5542 54.0126 6.4537 -17.8591 27.9764 -4.4830 0.0000 0.0000 15.3237 -73.7837 33.9248 -62.4754 7.1250 -0.0000 -0.0000 -21.4495 34.2883 -30.9587
0.6830 9.2541 -4.4265 -5.2215 3.1944 7.1166 0.0000 0.0000 0.0000 2.9029 22.2379 -97.8586 35.5918 12.6847 141.8007 -2.2014 -39.6479 -18.7345 0.7960 -5.6950 -15.9019 0.0000 0.0000 0.0000 20.3435 -41.3149 -103.7508 -35.9343 -12.2473 143.3875 0.2836 30.1263 -19.7754 -0.0587 1.5635 -4.3007 4.9680 8.2172 41.0586 7.9880 11.9907 18.3390 1.8581 5.7093 0.1806 -3.6181 -7.2115 -15.8039 -5.7423 -7.3226 25.3428 -2.4324 -4.2421 10.6929 -0.0000 -0.0000 0.0000 -76.5430 2.3086 63.9954 100.9112 -59.5453 -69.4349 -0.0000 -0.0000 13.3289 51.4745 13.4774 16.3164 -7.1250 0.0000 -0.0000 24.1809 49.4120 2.7770 -0.0000 -0.0000 0.0000 55.4176 53.8800 6.7215 -17.9282 28.0651 -4.5154 0.0000 0.0000 15.2244 -73.9123 34.1583 -62.8129 7.1250 -0.0000 -0.0000 -21.4161 34.6340 -30.9265
0.6858 9.2524 -4.4210 -5.1707 3.1967 7.1421 0.0000 0.0000 0.0000 2.8207 22.2432 -97.8465 35.5998 12.6747 141.8372 -2.1234 -39.4880 -18.9338 0.8228 -5.7876 -16.1695 0.0000 0.0000 0.0000 20.2807 -41.4195 -103.8579 -35.9485 -12.2286 143.4544 0.2983 30.1745 -19.7302 -0.0619 1.6058 -4.4174 4.9248 8.2226 41.0251 7.9988 11.9807 18.3524 1.8964 5.7023 0.1946 -3.6115 -7.1948 -15.8853 -5.7768 -7.2858 25.3939 -2.4468 -4.2296 10.7265 -0.0000 -0.0000 0.0000 -76.5289 2.2151 64.0760 100.8853 -59.5475 -69.4126 -0.0000 -0.0000 13.2322 51.3202 13.4538 16.2049 -7.1250 0.0000 -0.0000 23.9979 49.3399 2.7091 -0.0000 -0.0000 0.0000 55.3935 53.8242 6.7879 -17.9655 28.1130 -4.5330 0.0000 0.0000 15.3537 -74.0117 34.4421 -63.1328 7.1250 -0.0000 -0.0000 -21.3404 34.9917 -30.8281
